<?xml version="1.0" encoding="utf-8"?>
<!-- Generator: Adobe Illustrator 19.1.0, SVG Export Plug-In . SVG Version: 6.00 Build 0)  -->
<svg version="1.1" xmlns="http://www.w3.org/2000/svg" xmlns:xlink="http://www.w3.org/1999/xlink" x="0px" y="0px"
	 viewBox="0 0 612 383.1" style="enable-background:new 0 0 612 383.1;" xml:space="preserve" preserveAspectRatio="xMidYMid slice">
<style type="text/css">
	.st0{fill:#E88A24;}
	.st1{opacity:0.97;fill:url(#SVGID_1_);}
	.st2{fill:url(#SVGID_2_);}
	.st3{fill:url(#SVGID_3_);}
	.st4{opacity:0.16;}
	.st5{fill:url(#SVGID_4_);}
	.st6{fill:#826A58;}
	.st7{fill:url(#SVGID_5_);}
	.st8{fill:url(#SVGID_6_);}
	.st9{fill:url(#SVGID_7_);}
	.st10{fill:url(#SVGID_8_);}
	.st11{fill:url(#SVGID_9_);}
	.st12{fill:url(#SVGID_10_);}
	.st13{fill:#290F0E;}
	.st14{fill:none;stroke:#A65527;stroke-width:2;stroke-linecap:round;stroke-miterlimit:10;}
	.st15{fill:url(#SVGID_11_);}
	.st16{fill:url(#SVGID_12_);}
	.st17{fill:#7A6354;}
	.st18{fill:url(#SVGID_13_);}
	.st19{fill:url(#SVGID_14_);}
	.st20{fill:url(#SVGID_15_);}
	.st21{fill:url(#SVGID_16_);}
	.st22{fill:url(#SVGID_17_);}
	.st23{fill:url(#SVGID_18_);}
	.st24{opacity:0.35;fill:none;stroke:#FFFFFF;stroke-width:0.2;stroke-miterlimit:10;}
	.st25{fill:url(#SVGID_19_);}
	.st26{fill:url(#SVGID_20_);}
	.st27{fill:url(#SVGID_21_);}
	.st28{fill:url(#SVGID_22_);}
	.st29{fill:url(#SVGID_23_);}
	.st30{fill:url(#SVGID_24_);}
	.st31{fill:url(#SVGID_25_);}
	.st32{fill:url(#SVGID_26_);}
	.st33{fill:url(#SVGID_27_);}
	.st34{fill:url(#SVGID_28_);}
	.st35{fill:url(#SVGID_29_);}
	.st36{fill:url(#SVGID_30_);}
	.st37{fill:url(#SVGID_31_);}
	.st38{fill:url(#SVGID_32_);}
	.st39{fill:url(#SVGID_33_);}
	.st40{fill:none;stroke:#454545;stroke-width:0.25;stroke-miterlimit:10;}
	.st41{fill:url(#SVGID_34_);}
	.st42{fill:url(#SVGID_35_);}
</style>
<g id="Layer_4">
	<rect class="st0" width="612" height="383.1"/>
	<radialGradient id="SVGID_1_" cx="306" cy="191.5303" r="255.2644" gradientUnits="userSpaceOnUse">
		<stop  offset="0.3663" style="stop-color:#FFFFFF"/>
		<stop  offset="1" style="stop-color:#FFFFFF;stop-opacity:0"/>
	</radialGradient>
	<rect class="st1" width="612" height="383.1"/>
</g>
<g id="Layer_2">
	<linearGradient id="SVGID_2_" gradientUnits="userSpaceOnUse" x1="293.9626" y1="318.7335" x2="294.2126" y2="300.4835">
		<stop  offset="0" style="stop-color:#FDD8AC"/>
		<stop  offset="1" style="stop-color:#FBCB77"/>
	</linearGradient>
	<rect x="290.2" y="297.5" class="st2" width="7.8" height="18.8"/>
	<linearGradient id="SVGID_3_" gradientUnits="userSpaceOnUse" x1="319.4693" y1="318.2382" x2="319.7193" y2="299.9882">
		<stop  offset="0" style="stop-color:#FDD8AC"/>
		<stop  offset="1" style="stop-color:#FBCB77"/>
	</linearGradient>
	<rect x="315.8" y="297.5" class="st3" width="7.8" height="18.8"/>
	<rect x="290.2" y="297.5" class="st4" width="7.8" height="12.2"/>
	<rect x="315.8" y="297.5" class="st4" width="7.8" height="12.2"/>
	<linearGradient id="SVGID_4_" gradientUnits="userSpaceOnUse" x1="299.5521" y1="132.5" x2="299.5521" y2="144.1277">
		<stop  offset="0" style="stop-color:#826A58"/>
		<stop  offset="1" style="stop-color:#7A6354"/>
	</linearGradient>
	<path class="st5" d="M257.7,99.5c0,0-5.5,13.2-6,25s2.2,27.8,2.2,27.8s0.5-9.2,2.7-12.5c2.2-3.3,1.3,13,1.3,13s5.2-13.8,5.7-9.5
		c0.5,4.3-1.2,11.5-1.2,11.5s6.2-12.7,6.3-8c0.2,4.7-2.7,10.7-2.7,10.7s8.5-15.8,9.2-11.7c0.7,4.2,0.7,4.2,0.7,4.2s3.7-5.3,4.8-2.2
		c1.2,3.2,0.8,9.2,0.8,9.2s1.2-7,3.7-5.8c2.5,1.2,0.2,4.7,0.2,4.7s5.5-6,7.2-2.7c1.7,3.3,14.3,1.2,14.3,1.2s6.8-5.2,7.7-1.3s1,2,1,2
		s1.2-1.8,3.3-1.7c2.2,0.2,2.7,4.8,2.7,4.8s0-7.2,2.5-5c2.5,2.2,2.7,3,2.7,3s1.2-4,3.2-3.3c2,0.7,1.8,4.7,1.8,4.7s0.7-6,2.3-5.8
		c1.7,0.2,1.2,12.8,1.2,12.8s1-11.2,3.7-10.3c2.7,0.8,2.3,3.2,2.3,3.2s1.7-17.3,4-18.3c2.3-1,2.3-1,2.3-1L346,99.2l0.5-11.7l-88.7,7
		L257.7,99.5z"/>
	<path class="st6" d="M325.7,129.8c0,0-4.7,10.2-1.7,23.3c3,13.2,8,14.7,8,14.7S326.5,151,325.7,129.8z"/>
	<path class="st6" d="M315,132.5c0,0-3.8,7-1.7,19.3c2.2,12.3,5.5,14.2,5.5,14.2S313.8,148.5,315,132.5z"/>
	<path class="st6" d="M269.7,122.8c0,0,5.7,14.2,5.2,21.3c-0.5,7.2-4.7,13.7-4.7,13.7s9.3-1.3,9.8-17.8s-3.5-19.5-3.5-19.5
		L269.7,122.8z"/>
	<path class="st6" d="M259,79.8c0,0-2.7,11.8-4.3,19.8s-8,19.2-8,19.2s12-6.7,14.2-21.2C263,83.2,259,79.8,259,79.8z"/>
	<linearGradient id="SVGID_5_" gradientUnits="userSpaceOnUse" x1="305.2398" y1="188.5149" x2="303.9169" y2="141.5508">
		<stop  offset="0" style="stop-color:#FDD8AC"/>
		<stop  offset="1" style="stop-color:#FBCB77"/>
	</linearGradient>
	<path class="st7" d="M295.9,137.1c0,0,3.5,20.5-8.8,22.4s-15.2,0.2-17,15s-8.5,71.5-8.5,71.5s-4.8,8-3.8,10.4s12.8,4.6,12.8,1.1
		s-0.5-5.4-0.5-5.4s4,0.6,2.5-2.9s-3-4.4-3-4.4s10.2-65.2,11.5-66.2s5,2.8,5,2.8l39.2-0.9c0,0,5.9-7.2,6.6-3.4s13.2,64.9,13.2,64.9
		s-2.7,4.8-1,6c0.9,0.6,2.1,0.8,2.1,0.8s-2.8,6.2,1.7,7s8.1-2.4,8.4-4.8s-4-10.9-4-10.9s-8.2-62.5-9.6-70s-0.6-11.2-10-11.5
		s-20.5-0.6-21.6-5.4s-2.6-18.5-2.6-18.5L295.9,137.1z"/>
	<radialGradient id="SVGID_6_" cx="275.1183" cy="208.7954" r="12.5568" gradientUnits="userSpaceOnUse">
		<stop  offset="0" style="stop-color:#FBCB77"/>
		<stop  offset="1" style="stop-color:#FDD8AC;stop-opacity:0"/>
	</radialGradient>
	<path class="st8" d="M269.6,244.9c0,0,10.2-65.2,11.5-66.2s5,2.8,5,2.8l2.3-0.1l3.4-8.7l-3.7-13.4c-0.3,0.1-0.7,0.2-1,0.2
		c-12.2,1.9-15.2,0.2-17,15s-8.5,71.5-8.5,71.5s-4.8,8-3.8,10.4s12.8,4.6,12.8,1.1s-0.5-5.4-0.5-5.4s4,0.6,2.5-2.9
		S269.6,244.9,269.6,244.9z"/>
	<radialGradient id="SVGID_7_" cx="338.1568" cy="207.7682" r="10.8883" gradientUnits="userSpaceOnUse">
		<stop  offset="0" style="stop-color:#FBCB77"/>
		<stop  offset="1" style="stop-color:#FDD8AC;stop-opacity:0"/>
	</radialGradient>
	<path class="st9" d="M352.4,240.1c0,0-8.2-62.5-9.6-70s-0.6-11.2-10-11.5c-4.2-0.1-8.8-0.3-12.6-0.8l-1.5,22.8l6.7-0.1
		c0,0,5.9-7.2,6.6-3.4s13.2,64.9,13.2,64.9s-2.7,4.8-1,6c0.9,0.6,2.1,0.8,2.1,0.8s-2.8,6.2,1.7,7s8.1-2.3,8.3-4.7
		S352.4,240.1,352.4,240.1z"/>
	<path class="st4" d="M309.8,145.5c-0.7-5.2-1.3-10.8-1.3-10.8l-12.6,2.4c0,0,0.7,3.9,0.4,8.4H309.8z"/>
	<linearGradient id="SVGID_8_" gradientUnits="userSpaceOnUse" x1="301" y1="48.3231" x2="301" y2="146.3591">
		<stop  offset="0" style="stop-color:#FFD9AE"/>
		<stop  offset="1" style="stop-color:#E3B76B"/>
	</linearGradient>
	<circle class="st10" cx="301" cy="95.5" r="44.1"/>
	<linearGradient id="SVGID_9_" gradientUnits="userSpaceOnUse" x1="301" y1="49" x2="301" y2="145.6294">
		<stop  offset="0" style="stop-color:#FDD8AC"/>
		<stop  offset="1" style="stop-color:#FBCB77"/>
	</linearGradient>
	<circle class="st11" cx="301" cy="95.5" r="43.5"/>
	<linearGradient id="SVGID_10_" gradientUnits="userSpaceOnUse" x1="302.9236" y1="109.6647" x2="299.2569" y2="82.6647">
		<stop  offset="0" style="stop-color:#FDD8AC;stop-opacity:0"/>
		<stop  offset="1" style="stop-color:#FBCB77"/>
	</linearGradient>
	<circle class="st12" cx="301" cy="95.5" r="43.5"/>
	<circle class="st13" cx="318.7" cy="93.8" r="1.5"/>
	<circle class="st13" cx="282" cy="93.8" r="1.5"/>
	<path class="st14" d="M304.4,115.9c-0.9,1.2-2.4,2.1-4,2.1c-1.7,0-3.3-0.9-4.2-2.3"/>
	<linearGradient id="SVGID_11_" gradientUnits="userSpaceOnUse" x1="306.2416" y1="299.9527" x2="302.2069" y2="156.7195">
		<stop  offset="0" style="stop-color:#E87C5B"/>
		<stop  offset="1" style="stop-color:#EA5144"/>
	</linearGradient>
	<path class="st15" d="M316.1,156.9c0,0-1.6,11.1-11.8,10.1s-12-10-12-10l-7.4,2.8c0,0,3.1,4.2,2.1,11.5s-2.1,9.4-2.1,9.4
		s1.1,18.1,0.4,36.1s-23.2,75-23.2,75s11.8,8.5,41.5,8.2s46.5-9,46.5-9s-16.8-37.2-21.2-65s-2.6-45.2-2.6-45.2s-2.1-4.9-3.5-11.5
		s0.2-11.2,0.2-11.2L316.1,156.9z"/>
	<radialGradient id="SVGID_12_" cx="318.75" cy="286.5" r="77.2739" fx="297.3795" fy="283.9355" gradientUnits="userSpaceOnUse">
		<stop  offset="0" style="stop-color:#E87C5B"/>
		<stop  offset="1" style="stop-color:#EA5144"/>
	</radialGradient>
	<path class="st16" d="M328.1,222h-43.5c-3.7,21.8-22.6,69.8-22.6,69.8s11.8,8.5,41.5,8.2s46.5-9,46.5-9s-16.8-37.2-21.2-65
		C328.5,224.6,328.3,223.3,328.1,222z"/>
	<path class="st6" d="M320.8,72.2c0,0-8.2,6.2-34.2,9c-26,2.8-29.7,2.2-29.7,2.2s4.3-35.5,45.8-35.8s47,28.2,47,41.5
		s-4,29.3-0.5,41.3S359,151,359,151s-10.8-1-14.2-12.7c-2.7-9.6-0.3-42.8-0.3-42.8s-6.8-0.2-14.3-9s-7.7-13.3-7.7-13.3
		s-2.5,4.3-9,6.7c-6.5,2.3-14.5,2.8-14.5,2.8S315.2,78.5,320.8,72.2z"/>
	<path class="st6" d="M344.3,131.7c0,0-2.7,8.2-0.8,17.7s7,11,7,11s-3-4.3-4.2-13.5C345.2,137.7,344.3,131.7,344.3,131.7z"/>
	<path class="st6" d="M343,127.6c0,0-2.4,21.4,1.2,33.8c3.5,12.4,3.6,13.9,3.6,13.9s-10.2-12.8-9.7-30.6S343,127.6,343,127.6z"/>
	<path class="st6" d="M266.7,129.5c0,0,1.5,8.8-1.2,20.2c-2.7,11.3-9,17.5-9,17.5S263,147.3,266.7,129.5z"/>
	<path class="st6" d="M261,124c0,0,0.2,9.2-6.5,21.7c-6.7,12.5-13.3,15.8-13.3,15.8S249,151.3,261,124z"/>
	<path class="st6" d="M254.2,107.5c0,0-7,21.8-4.5,35s6,17,6,17s-2.3-14.5-1.7-33.2S254.2,107.5,254.2,107.5z"/>
	<g>
		<g>
			<g>
				<path class="st17" d="M256.9,79.2c0,0.1,1.7,0.2,4.4-0.1c2.8-0.2,6.7-0.7,11.1-1.2c4.4-0.6,9.4-1.2,14.3-1.9
					c4.9-0.7,9.8-1.6,14-2.6c8.5-2,12.9-3.9,15.3-4.9c2.4-1,2.8-1.1,3-0.8c0.2,0.2,0,0.9-2.3,2.3c-2.3,1.4-6.8,3.6-15.5,5.7
					c-4.3,1-9.3,1.8-14.3,2.3c-5,0.5-10,0.8-14.5,1.1c-4.5,0.3-8.4,0.4-11.2,0.4C258.5,79.6,256.8,79.3,256.9,79.2z"/>
			</g>
		</g>
	</g>
	<g>
		<g>
			<g>
				<path class="st17" d="M267.5,65.5c0,0,1.3,0.1,3.6,0.1c2.2,0,5.4,0,9-0.2c7.2-0.3,16-0.9,23-1.8c7-0.9,10.7-1.8,12.7-2.2
					c2.1-0.4,2.5-0.3,2.6,0c0.1,0.3-0.1,0.8-2.1,1.6c-2,0.8-5.8,2.1-12.9,3c-7.1,1-16.1,0.9-23.3,0.6c-3.6-0.1-6.7-0.4-9-0.6
					C268.8,65.8,267.5,65.5,267.5,65.5z"/>
			</g>
		</g>
	</g>
	<g>
		<g>
			<g>
				<path class="st17" d="M288.2,52c0,0,0.2-0.1,0.7-0.2c0.4-0.1,1.1-0.2,1.9-0.3c1.6-0.2,3.9-0.3,6.5-0.4c2.6-0.1,5.5-0.1,8.4,0.1
					c2.9,0.2,5.8,0.6,8.3,1.2c5,1.2,7.7,2.4,9,3.2c1.4,0.8,1.5,1.2,1.3,1.5c-0.1,0.3-0.5,0.4-2,0.1c-1.5-0.3-4.1-1.2-8.9-2.4
					c-2.4-0.6-5.2-1.1-8-1.5c-2.8-0.4-5.7-0.6-8.2-0.9c-2.6-0.2-4.8-0.4-6.4-0.4c-0.8,0-1.4,0-1.9,0C288.5,51.9,288.2,52,288.2,52z"
					/>
			</g>
		</g>
	</g>
	<g>
		<g>
			<g>
				<path class="st17" d="M344.9,87c0,0-2.1-1.5-4.8-3.6c-1.3-1-2.9-2.2-4.3-3.7c-1.4-1.4-2.5-3-3.4-4.5c-1.8-3-2.4-4.8-2.6-5.8
					c-0.2-1,0-1.3,0.3-1.4c0.3-0.1,0.6-0.1,1.2,0.8c0.6,0.8,1.4,2.4,3.1,5.2c0.8,1.4,1.8,3,2.9,4.4c1.1,1.5,2.4,2.8,3.5,4.1
					C343.2,85.1,344.9,87,344.9,87z"/>
			</g>
		</g>
	</g>
	<g>
		<g>
			<g>
				<path class="st17" d="M349.5,150.9c0,0-0.4-0.8-1.2-2c-0.8-1.3-1.7-3.1-2.7-5.2c-2-4.3-3.9-10-4.5-14.7
					c-0.6-4.7-0.2-7.4,0.1-8.8c0.4-1.4,0.7-1.6,1.1-1.5c0.3,0.1,0.5,0.3,0.6,1.7c0.1,1.4,0,3.8,0.6,8.3c0.5,4.5,1.8,10.1,3.2,14.5
					c0.7,2.2,1.4,4.1,2,5.5C349.2,150.1,349.5,150.9,349.5,150.9z"/>
			</g>
		</g>
	</g>
	<g>
		<g>
			<g>
				<path class="st17" d="M256.1,148c0,0-0.4-3.2-0.7-7.5c-0.2-2.1-0.4-4.6-0.5-7c-0.2-2.4-0.1-4.9,0.1-7.1c0.5-4.3,1.4-6.7,2-7.8
					c0.7-1.2,1.1-1.2,1.4-1.1c0.3,0.2,0.4,0.4,0.2,1.7c-0.2,1.2-0.8,3.4-1.3,7.5c-0.2,2.1-0.4,4.4-0.5,6.8c-0.1,2.4-0.2,4.8-0.3,7
					C256.4,144.8,256.1,148,256.1,148z"/>
			</g>
		</g>
	</g>
	<g>
		<g>
			<g>
				<path class="st17" d="M288.9,157.9c0,0,0.4-1.9,1-4.5c0.3-1.3,0.7-2.7,1-4.1c0.3-1.4,0.5-2.7,0.5-3.9c0.1-2.4-0.1-3.7,0-4.4
					c0-0.7,0.2-0.9,0.5-1.1c0.3-0.1,0.7-0.1,1.1,0.6c0.4,0.7,1,2.3,0.8,5c-0.1,1.4-0.4,2.9-1,4.3c-0.6,1.5-1.2,2.7-1.8,3.9
					C289.8,156.1,288.9,157.9,288.9,157.9z"/>
			</g>
		</g>
	</g>
	<g>
		<g>
			<g>
				<path class="st17" d="M312.2,153.6c0,0-0.1-0.3-0.3-0.9c-0.2-0.6-0.5-1.3-0.8-2.2c-0.2-0.5-0.3-0.9-0.5-1.4
					c-0.2-0.5-0.3-1.1-0.4-1.6c-0.2-1.1-0.3-2.2-0.3-3.1c0-1.9,0.3-3,0.6-3.5c0.3-0.5,0.6-0.6,0.9-0.5c0.3,0.1,0.6,0.2,0.7,0.7
					c0.2,0.6,0.2,1.6,0.1,3.4c0,0.9-0.1,1.9-0.1,2.9c0,0.5,0,1,0,1.5c0,0.5,0,1,0.1,1.5c0,1,0,1.8,0,2.4
					C312.3,153.3,312.2,153.6,312.2,153.6z"/>
			</g>
		</g>
	</g>
	<g>
		<g>
			<g>
				<path class="st17" d="M333.9,156.2c0,0,0-0.7,0-1.8c0-1.1-0.1-2.6-0.3-4.4c-0.2-1.7-0.4-3.7-0.7-5.6c-0.3-1.9-0.7-3.8-1.1-5.4
					c-0.8-3.3-1.4-5.1-1.6-6.1c-0.2-1,0-1.3,0.3-1.4c0.3-0.1,0.7-0.1,1.3,0.8c0.6,0.9,1.5,2.7,2.4,6.2c0.4,1.7,0.7,3.8,0.8,5.8
					c0.1,2,0,4-0.1,5.8c-0.1,1.8-0.3,3.3-0.5,4.4C334.1,155.6,333.9,156.2,333.9,156.2z"/>
			</g>
		</g>
	</g>
	<linearGradient id="SVGID_13_" gradientUnits="userSpaceOnUse" x1="352.0878" y1="251.1597" x2="347.2128" y2="232.4097">
		<stop  offset="0" style="stop-color:#FDD8AC"/>
		<stop  offset="1" style="stop-color:#FBCB77"/>
	</linearGradient>
	<path class="st18" d="M352.4,240.1c0,0-1.4,0.9-3.1,1.4s-4,0.5-4,0.5s1.5,4.9,2,7.2s0.5,2.4,0.5,2.4s2.1,0.2,4.8-0.1s3.9-1,3.9-1
		L352.4,240.1z"/>
	<linearGradient id="SVGID_14_" gradientUnits="userSpaceOnUse" x1="350.8117" y1="246.2655" x2="350.1242" y2="252.5155">
		<stop  offset="0" style="stop-color:#FDD8AC;stop-opacity:0"/>
		<stop  offset="1" style="stop-color:#F6A76D"/>
	</linearGradient>
	<path class="st19" d="M352.4,240.1c0,0-1.4,0.9-3.1,1.4s-4,0.5-4,0.5s0.8,4.1,1.3,6.5s1.2,3.1,1.2,3.1s2.1,0.2,4.8-0.1s3.9-1,3.9-1
		s0.1-0.3-0.7-2.7S352.4,240.1,352.4,240.1z"/>
	<linearGradient id="SVGID_15_" gradientUnits="userSpaceOnUse" x1="343.0222" y1="253.5121" x2="350.2511" y2="250.0879">
		<stop  offset="0" style="stop-color:#FDD8AC"/>
		<stop  offset="1" style="stop-color:#FBCB77"/>
	</linearGradient>
	<path class="st20" d="M346.3,248.8c0,0,0.9,0.7,1.4,2.8c0.2,0.7-1,3.3-1,3.3s-0.9,0.6-1.2-2S346.3,248.8,346.3,248.8z"/>
	<linearGradient id="SVGID_16_" gradientUnits="userSpaceOnUse" x1="263.7476" y1="253.6093" x2="263.7476" y2="241.8423">
		<stop  offset="0" style="stop-color:#FDD8AC"/>
		<stop  offset="1" style="stop-color:#FBCB77"/>
	</linearGradient>
	<path class="st21" d="M269.6,244.9c0,0-2.6,1.8-4.9,1.5s-3.1-0.4-3.1-0.4s-3.5,6.9-3.8,7.9s9.2,1.8,10.2,1.5
		S269.6,244.9,269.6,244.9z"/>
	<linearGradient id="SVGID_17_" gradientUnits="userSpaceOnUse" x1="263.5189" y1="248.6443" x2="266.1439" y2="257.3943">
		<stop  offset="0" style="stop-color:#FDD8AC;stop-opacity:0"/>
		<stop  offset="1" style="stop-color:#F6A76D"/>
	</linearGradient>
	<path class="st22" d="M269.6,244.9c0,0-2.6,1.8-4.9,1.5s-3.1-0.4-3.1-0.4s-3.5,6.9-3.8,7.9s9.2,1.8,10.2,1.5
		S269.6,244.9,269.6,244.9z"/>
	<linearGradient id="SVGID_18_" gradientUnits="userSpaceOnUse" x1="270.6081" y1="254.868" x2="267.3873" y2="253.5352">
		<stop  offset="0" style="stop-color:#FDD8AC"/>
		<stop  offset="1" style="stop-color:#FBCB77"/>
	</linearGradient>
	<path class="st23" d="M269.3,249.8c0,0-0.6,4.1-1.2,5.9c-0.1,0.4,1.3,3.2,1.3,3.2s0.8-0.2,1.1-1.4
		C271.1,255.4,269.3,249.8,269.3,249.8z"/>
	<path class="st24" d="M322.6,157.8c0,0-1.9,3.1-0.3,11.9c1.6,8.9,4.1,11.9,4.1,11.9"/>
	<path class="st24" d="M285.1,159.4c0,0,3.2,3.7,2.5,11.2s-2.7,10.8-2.7,10.8"/>
	
		<radialGradient id="SVGID_19_" cx="325.3775" cy="109.1447" r="7" gradientTransform="matrix(2.6513 0 0 1.7169 -540.6765 -80.6434)" gradientUnits="userSpaceOnUse">
		<stop  offset="0" style="stop-color:#F6A76D"/>
		<stop  offset="1" style="stop-color:#F6A76D;stop-opacity:0"/>
	</radialGradient>
	<ellipse class="st25" cx="322" cy="106.8" rx="18.6" ry="12"/>
	
		<radialGradient id="SVGID_20_" cx="308.5934" cy="109.1447" r="7" gradientTransform="matrix(2.6513 0 0 1.7169 -540.6765 -80.6434)" gradientUnits="userSpaceOnUse">
		<stop  offset="0" style="stop-color:#F6A76D"/>
		<stop  offset="1" style="stop-color:#F6A76D;stop-opacity:0"/>
	</radialGradient>
	<ellipse class="st26" cx="277.5" cy="106.8" rx="18.6" ry="12"/>
	<linearGradient id="SVGID_21_" gradientUnits="userSpaceOnUse" x1="260.7255" y1="263.7113" x2="265.3088" y2="252.378">
		<stop  offset="0" style="stop-color:#FDD8AC;stop-opacity:0"/>
		<stop  offset="1" style="stop-color:#F6A76D"/>
	</linearGradient>
	<path class="st27" d="M257.9,254c0,0-1.2,2.9,1.4,3.8c2.6,0.9,6.8,1.9,8.4,1.6c1.6-0.3,1.6-0.3,1.6-0.3l-1.3-3.7L257.9,254z"/>
	<linearGradient id="SVGID_22_" gradientUnits="userSpaceOnUse" x1="353.9398" y1="257.9674" x2="349.6898" y2="249.03">
		<stop  offset="0" style="stop-color:#FDD8AC;stop-opacity:0"/>
		<stop  offset="1" style="stop-color:#F6A76D"/>
	</linearGradient>
	<path class="st28" d="M347.8,251.6l-1.1,3.5c0,0,1.9,1.6,5.7,0.1c4.3-1.6,4.1-4.8,4.1-4.8s-1.1,0.6-4.7,1.1
		C349.7,251.8,347.8,251.6,347.8,251.6z"/>
	<linearGradient id="SVGID_23_" gradientUnits="userSpaceOnUse" x1="294.2423" y1="328.8419" x2="294.419" y2="315.9448">
		<stop  offset="0" style="stop-color:#69605C"/>
		<stop  offset="1" style="stop-color:#A09F9F"/>
	</linearGradient>
	<path class="st29" d="M294.2,331c4.7,0,8.8-1,9-2.1c0,0,0,0,0-1.1c0-5.6-4-10.1-9-10.1s-9,4.5-9,10.1c0,1.1,0,1.1,0,1.1
		C285.5,330,289.6,331,294.2,331z"/>
	<linearGradient id="SVGID_24_" gradientUnits="userSpaceOnUse" x1="319.7423" y1="328.8419" x2="319.919" y2="315.9448">
		<stop  offset="0" style="stop-color:#69605C"/>
		<stop  offset="1" style="stop-color:#A09F9F"/>
	</linearGradient>
	<path class="st30" d="M319.8,331c4.7,0,8.8-1,9-2.1c0,0,0,0,0-1.1c0-5.6-4-10.1-9-10.1s-9,4.5-9,10.1c0,1.1,0,1.1,0,1.1
		C311,330,315.1,331,319.8,331z"/>
	<g>
		<linearGradient id="SVGID_25_" gradientUnits="userSpaceOnUse" x1="294.1596" y1="318.7848" x2="294.2395" y2="312.9539">
			<stop  offset="0" style="stop-color:#69605C"/>
			<stop  offset="1" style="stop-color:#A09F9F"/>
		</linearGradient>
		<path class="st31" d="M296.9,318c0,1-0.8,1.8-1.8,1.8h-1.8c-1,0-1.8-0.8-1.8-1.8v-2.4c0-1,0.8-1.8,1.8-1.8h1.8
			c1,0,1.8,0.8,1.8,1.8V318z"/>
	</g>
	<linearGradient id="SVGID_26_" gradientUnits="userSpaceOnUse" x1="293.7777" y1="327.1268" x2="297.4027" y2="314.7518">
		<stop  offset="0" style="stop-color:#69605C"/>
		<stop  offset="1" style="stop-color:#A09F9F"/>
	</linearGradient>
	<path class="st32" d="M294.5,331c4.7,0,8.8-1.4,9-3c0,0,0,0,0-1.6c0-14.5-4-10.2-9-10.2s-9-3.6-9,10.2c0,1.6,0,1.6,0,1.6
		C285.7,329.6,289.8,331,294.5,331z"/>
	<linearGradient id="SVGID_27_" gradientUnits="userSpaceOnUse" x1="294.2413" y1="328.5781" x2="294.4395" y2="314.1088">
		<stop  offset="0" style="stop-color:#B33875"/>
		<stop  offset="1" style="stop-color:#D57EB4"/>
	</linearGradient>
	<path class="st33" d="M294.2,331c4.7,0,8.8-1.1,9-2.4c0,0,0,0,0-1.3c0-6.2-4-11.3-9-11.3s-9,5.1-9,11.3c0,1.3,0,1.3,0,1.3
		C285.5,329.9,289.6,331,294.2,331z"/>
	<linearGradient id="SVGID_28_" gradientUnits="userSpaceOnUse" x1="294.3171" y1="327.2848" x2="297.9421" y2="314.9098">
		<stop  offset="0" style="stop-color:#69605C"/>
		<stop  offset="1" style="stop-color:#A09F9F"/>
	</linearGradient>
	<path class="st34" d="M294.2,331c4.7,0,8.8-1,9-2.1c0,0,0,0,0-1.1c0-5.6-4-10.1-9-10.1s-9,4.5-9,10.1c0,1.1,0,1.1,0,1.1
		C285.5,330,289.6,331,294.2,331z"/>
	<g>
		<linearGradient id="SVGID_29_" gradientUnits="userSpaceOnUse" x1="319.5346" y1="318.7848" x2="319.6145" y2="312.9539">
			<stop  offset="0" style="stop-color:#69605C"/>
			<stop  offset="1" style="stop-color:#A09F9F"/>
		</linearGradient>
		<path class="st35" d="M322.2,318c0,1-0.8,1.8-1.8,1.8h-1.8c-1,0-1.8-0.8-1.8-1.8v-2.4c0-1,0.8-1.8,1.8-1.8h1.8
			c1,0,1.8,0.8,1.8,1.8V318z"/>
	</g>
	<linearGradient id="SVGID_30_" gradientUnits="userSpaceOnUse" x1="318.9686" y1="326.0401" x2="323.0936" y2="316.4151">
		<stop  offset="0" style="stop-color:#69605C"/>
		<stop  offset="1" style="stop-color:#A09F9F"/>
	</linearGradient>
	<path class="st36" d="M319.8,331c4.7,0,8.8-1.4,9-3c0,0,0,0,0-1.6c0-14.5-4-10.2-9-10.2s-9-3.6-9,10.2c0,1.6,0,1.6,0,1.6
		C311,329.6,315.1,331,319.8,331z"/>
	<linearGradient id="SVGID_31_" gradientUnits="userSpaceOnUse" x1="319.7412" y1="328.5491" x2="319.9418" y2="313.9069">
		<stop  offset="0" style="stop-color:#B33875"/>
		<stop  offset="1" style="stop-color:#D57EB4"/>
	</linearGradient>
	<path class="st37" d="M319.8,331c4.7,0,8.8-1.1,9-2.4c0,0,0,0,0-1.3c0-6.3-4-11.4-9-11.4s-9,5.1-9,11.4c0,1.3,0,1.3,0,1.3
		C311,329.9,315.1,331,319.8,331z"/>
	<linearGradient id="SVGID_32_" gradientUnits="userSpaceOnUse" x1="320.0435" y1="326.407" x2="324.1685" y2="316.782">
		<stop  offset="0" style="stop-color:#69605C"/>
		<stop  offset="1" style="stop-color:#A09F9F"/>
	</linearGradient>
	<path class="st38" d="M319.8,330.9c4.7,0,8.8-1,9-2.1c0,0,0,0,0-1.1c0-5.6-4-10.1-9-10.1s-9,4.5-9,10.1c0,1.1,0,1.1,0,1.1
		C311,330,315.1,330.9,319.8,330.9z"/>
	<linearGradient id="SVGID_33_" gradientUnits="userSpaceOnUse" x1="319.3933" y1="328.7206" x2="321.9555" y2="322.7422">
		<stop  offset="0" style="stop-color:#575151"/>
		<stop  offset="1" style="stop-color:#908F8F"/>
	</linearGradient>
	<path class="st39" d="M319.8,328.9c-4.6,0-8.6-0.9-9-2c0,0.3,0,0.5,0,0.8c0,1.1,0,1.1,0,1.1c0.3,1.2,4.3,2.1,9,2.1s8.8-1,9-2.1
		c0,0,0,0,0-1.1c0-0.3,0-0.5,0-0.8C328.3,328,324.3,328.9,319.8,328.9z"/>
	<path class="st40" d="M310.7,326.9c0.3,1.2,4.3,2.1,9,2.1s8.8-1,9-2.1"/>
	<linearGradient id="SVGID_34_" gradientUnits="userSpaceOnUse" x1="293.9246" y1="328.7206" x2="296.4868" y2="322.7422">
		<stop  offset="0" style="stop-color:#575151"/>
		<stop  offset="1" style="stop-color:#908F8F"/>
	</linearGradient>
	<path class="st41" d="M294.3,328.9c-4.6,0-8.6-0.9-9-2c0,0.3,0,0.5,0,0.8c0,1.1,0,1.1,0,1.1c0.3,1.2,4.3,2.1,9,2.1s8.8-1,9-2.1
		c0,0,0,0,0-1.1c0-0.3,0-0.5,0-0.8C302.8,328,298.9,328.9,294.3,328.9z"/>
	<path class="st40" d="M285.3,326.9c0.3,1.2,4.3,2.1,9,2.1s8.8-1,9-2.1"/>
	
		<radialGradient id="SVGID_35_" cx="306.6227" cy="329.0878" r="60.1854" gradientTransform="matrix(0.8886 0 0 0.1922 35.026 265.2581)" gradientUnits="userSpaceOnUse">
		<stop  offset="0.2034" style="stop-color:#69605C;stop-opacity:0.6"/>
		<stop  offset="1" style="stop-color:#A09F9F;stop-opacity:0"/>
	</radialGradient>
	<ellipse class="st42" cx="307.5" cy="328.5" rx="54.4" ry="12.5"/>
</g>
</svg>
