<?xml version="1.0" encoding="utf-8"?>
<!-- Generator: Adobe Illustrator 19.1.0, SVG Export Plug-In . SVG Version: 6.00 Build 0)  -->
<svg version="1.1" xmlns="http://www.w3.org/2000/svg" xmlns:xlink="http://www.w3.org/1999/xlink" x="0px" y="0px"
	 viewBox="0 0 612 383.1" style="enable-background:new 0 0 612 383.1;" xml:space="preserve">
<style type="text/css">
	.st0{fill:#05998B;}
	.st1{fill:#39BEB4;}
	.st2{opacity:0.75;fill:#05998B;}
	.st3{opacity:0.76;fill:#05998B;}
	.st4{opacity:0.72;fill:#2AAAE2;}
	.st5{opacity:0.72;fill:#C7EAFB;}
	.st6{opacity:0.72;fill:#B0E0E8;}
	.st7{opacity:0.72;}
	.st8{fill:#75CCE4;}
	.st9{opacity:0.72;fill:#75CCE4;}
	.st10{opacity:0.72;fill:#0EBBD6;}
	.st11{opacity:0.72;fill:#93D7E6;}
	.st12{opacity:0.72;fill:#00AAA3;}
	.st13{opacity:0.72;fill:#2BACE2;}
	.st14{opacity:0.72;fill:#E1EDC2;}
	.st15{opacity:0.72;fill:#05998B;}
	.st16{opacity:0.3;fill:#05998B;}
	.st17{fill:#0C3642;}
	.st18{fill:#9EC8CC;}
	.st19{fill:#FFFFFF;}
	.st20{clip-path:url(#SVGID_2_);fill:#0C3642;}
	.st21{clip-path:url(#SVGID_4_);}
</style>
<g id="Layer_4">
</g>
<g id="Layer_2">
	<g>
		<path class="st0" d="M192.4,195.6c-0.1-0.1-0.2-0.3-0.4-0.5c-0.1-0.1-0.2-0.3-0.4-0.4c-0.6-0.8-1.7-1.2-2.7-0.4
			c-12.4,8.6-24.2-9.9-31.4-17.6c-6-6.4-13.4-12-20.7-16.9c-7.9-5.2-16.8-9.9-25.9-12.2c-7.3-1.9-18.3-1.9-22.1,6.2
			c-1.4,3-1,6.5,1.4,8.9c2.8,2.8,6.7,2.6,10.3,1.9c4.9-1,9.6-2.4,14.7-1.2c5,1.2,9.5,3.5,13.8,6.3c4.1,2.6,8.3,5.5,11.9,8.8
			c3.6,3.3,6.6,7,9.9,10.5c7.3,7.7,16.7,14.3,27.2,16.4c6,1.2,15.1-0.3,15.6-7.8C193.7,196.7,193.1,196,192.4,195.6z"/>
		<path class="st0" d="M394.3,310.4c0.7-5.3-0.3-10.5-0.7-15.8c-0.2-2.4-3.3-2.8-4.3-1.3c-0.9-0.5-2-0.9-3.2-1
			c-2.9-0.2-2.9,4.3,0,4.5c4.5,0.3,4,11.2,3.4,14.1c-0.2,1-0.5,1.9-0.8,2.8c-0.6,1.5-1.4,3-2.3,4.4c-3.2,4.6-8.2,7.8-13.1,10.5
			c-8.9,4.9-18.3,3.9-27.9,2.4c-8.6-1.3-17.6-1.8-26.1,0.4c-4.2,1.1-8.4,2.9-11.9,5.5c-2.7,1.9-5.5,4.2-6.2,7.6
			c-1.4,6.7,6.8,13.8,12.9,9.9c3.3-2.1,4.7-5.8,7.2-8.6c3.5-3.8,9-5.1,14-5.1c9.8-0.1,19.5,1.6,29.2-0.8c9.6-2.4,18-9.2,24-17
			c0.1-0.1,0.2-0.2,0.2-0.3c1.6-1.8,2.8-3.9,3.8-6.1C393.3,314.8,394,312.7,394.3,310.4z"/>
		<path class="st0" d="M438.6,81.3c-3.1-4.9-6.6-9.8-8.4-15.3c-2-6.1-1.8-12.4-0.5-18.6c1.5-7.1,9.5-17.3,4.1-24.4
			c-2.4-3.1-7.2-4.1-10.9-3.4c-4.2,0.8-7.4,4.2-9.3,7.8c-5.2,9.7-3,20.6-0.2,30.7c2.9,10.7,9.1,19.4,14.4,29
			c3.1,5.5,5.4,11.4,7.3,17.4c1.9,6.1,3.2,12.7,2.2,19.1c-0.8,4.9-2.9,9.1-6.7,12.3c-3.4,3-8.2,6.2-12.9,4.5
			c-2.4-0.9-3.6,2.3-2.1,3.8c-2.2-0.6-3.9,2.8-1.6,4.2c4.2,2.6,8.9,0.5,12.8-1.8c4.5-2.8,8.8-5.9,12.6-9.6
			c6.8-6.5,10.7-16.1,10.6-25.5C449.9,100.9,444.3,90.1,438.6,81.3z"/>
	</g>
	<g>
		<path class="st1" d="M423.6,145.7c-2.8-8.4-6.7-17.4-12.4-24.6c0.9-4.2,1-9,0.9-10.7c-0.3-4.8-3.3-9.1-7.4-11.4
			c-2.7-1.5-5.5-2.8-8.7-3c-1.5-0.1-3.2-0.1-4.6,0.3c0,0-0.1,0-0.1,0c-0.5-0.7-1-1.3-1.5-1.9c-2.5-3.2-5.2-6.2-8.4-8.9
			c-7.4-6.3-16.1-11.1-24.9-15.2c-17.9-8.3-38-11.8-57.5-7.6c-9.3,2-18.9,4.7-27.1,9.6c-1.4-0.9-3.2-1.1-4.7-1.4
			c-3.7-0.7-7.4-1.4-11.1-1.5c-7.3-0.2-15.9,2-21.3,7.1c-5.2,4.9-7.3,12.7-7.4,19.6c-0.1,3.1,0.3,6.1,0.9,9c-3.2,3.6-6,7.5-8.4,11.8
			c-4.9,8.6-9.2,17.7-11.9,27.2c-1.5,5.2-2.5,10.6-3.1,16c-4,2.8-7.6,6.1-10.8,10.2c-5.4,7-9.4,15.7-9.8,24.6
			c-0.6,17.1,12.2,34.9,29.6,37c-0.8,2-2.2,3.8-2.9,5.7c-0.8,2.3-0.8,4.9-0.4,7.4c0.9,5.5,3.8,11,7.7,14.9
			c4.7,4.7,11.9,8.1,18.9,8.4c1.4,3.5,3.5,6.7,5.8,9.6c5.8,7.3,13.9,13.8,22.3,18c8.9,4.4,19.4,6.3,29.3,6.3c4.6,0,8.7-0.7,12.9-2.3
			c1.1,1.3,2.4,2.5,4,3.6c1.5,1.1,3.1,1.9,4.7,2.4c0.1,0.1,0.3,0.1,0.4,0.2c2.8,1.2,6,1.5,8.2-0.2c0.1,0,0.1,0,0.2-0.1
			c4.5,5.5,11.3,8.7,18.4,5.6c4.4-1.9,7.2-5,9-8.7c1.3-1.3,2.2-2.8,3-4.3c3.5,2.6,8.2,3.6,12.5,4c7.1,0.7,14.6,0.4,21.6-1.3
			c7.7-1.8,14.7-6.5,18.7-13.4c3.9-6.7,3.8-14.8,2.6-22.2c-0.7-4.2-1.4-8.6-3.6-12.2c1.4-1.7,2.7-3.6,3.9-5.5
			c6.2-9.9,10.2-21.4,12.8-32.7c2.6-11.3,3.6-22.9,3.8-34.5C427.8,168.8,427.4,157,423.6,145.7z"/>
		<g>
			<path class="st2" d="M269.7,85c-2.6-6-8.5-7.4-14.5-6.9c-4.4-0.4-9.1,0.3-12.5,2.3c-6.1,3.6-6.8,11.5-4.6,17.6
				c2.3,6.4,7.5,11.9,14.4,13.1c6.2,1.1,12.1-1.8,15.3-7.2C271.2,98.5,272.3,90.9,269.7,85z M256.8,83.2c0.6,0.1,1.4,0.2,2.1,0.3
				c0.6,0.8,1.7,1.2,2.8,0.5c0.1,0,0.1-0.1,0.1-0.1c0.7,3.4,2.1,6.5,1,10c-1.1,3.4-3.9,6.2-6.5,8.6c-2.2,0.6-4.8,0.6-6.7-0.4
				c-3.7-2-5.5-7.3-5.2-11.3c0.4-5.2,4.3-7.3,9-8c0.2,0,0.3,0,0.5-0.1C254.9,82.8,255.8,83,256.8,83.2z"/>
		</g>
		<path class="st3" d="M357.4,85.9c-3.3-8.2-9.9-14.4-18-16.3c-4.9-1.1-10-1.1-10-1c-0.8,0-1.6,0.1-2.5,0.3c-1,0.2-2.1,0.6-3,1
			c-0.7,0.2-1.3,0.4-2,0.7c-2.4,1.1-5,2.4-7.1,4.1c-4.1,3.4-6.1,8.6-6.6,13.8c-0.9,10.7,5.4,21.8,13.6,28.3
			c4.3,3.4,9.6,5.7,15.1,4.6c5.4-1.1,10-4.5,14-8.1C358.9,106.1,361.5,96.1,357.4,85.9z M315.7,90.8c-0.6-2.6-0.7-5.1,0-7.4
			c0.1-0.1,0.1-0.2,0.2-0.3c1.1-1.7,2.4-3.3,3.8-4.8c3.4-2.3,7.9-3.8,12-3.9c1.9,0,3.7,0.1,5.5,0.4c1,0.5,2,1,2.9,1.5
			c7.6,4.2,13.3,11.4,10,20.4c-3.1,8.5-11.5,14.2-20.6,13.3C320.8,109.2,317.4,98,315.7,90.8z"/>
		<g id="DOTS">
			<path class="st4" d="M303.3,271.9c-0.9-0.8-2.1-0.9-3.4-0.9h-1.3c-1.3,0-2.6,0-3.5,0.9c-0.5,0.4-0.8,0.7-1,1.3
				c-0.3,0.6-0.4,1-0.4,1.7c0,1.3,0.5,3.2,1.4,4.1c0.9,0.8,2.1,2,3.4,2h1.3c1.3,0,2.6-1.2,3.5-2.1c0.5-0.4,0.8-1.3,1-1.9
				c0.3-0.6,0.4-1.1,0.4-1.7C304.6,274,304.2,272.7,303.3,271.9z"/>
			<path class="st5" d="M295,156c-0.2-0.6-0.5-1.1-1-1.6c-0.4-0.5-1-0.8-1.6-1c-0.6-0.3-1.2-0.4-1.8-0.4c-1.3,0-2.6,0.5-3.5,1.4
				c-0.1,0.1-0.2,0.3-0.3,0.4c-0.2,0.1-0.4,0.3-0.6,0.5c-0.5,0.4-0.8,1-1,1.6c-0.3,0.6-0.4,1.2-0.4,1.8c0,0.7,0.1,1.3,0.4,1.9
				c0.2,0.6,0.5,1.1,1,1.6c0.9,0.8,2.1,1.5,3.4,1.4c1.2,0,2.2-0.4,3.1-1.1c0.4-0.2,0.7-0.5,1-0.8c0.3-0.3,0.7-0.8,0.9-1.1
				c0.5-0.8,0.6-1.7,0.7-2.6C295.4,157.2,295.3,156.6,295,156z"/>
			<path class="st6" d="M256.6,157.7c-0.2-0.6-0.5-1.1-1-1.6c-0.9-0.8-2.1-1.4-3.4-1.4c-0.3,0-0.6,0-0.9,0.1c-0.8,0.1-1.2,0.1-2,0.6
				c-0.4,0.2-0.7,0.5-1.1,0.8c-0.1,0.1-0.3,0.2-0.4,0.3c-0.4,0.3-0.6,0.7-0.8,1.1c-0.1,0.3-0.5,0.5-0.6,0.8
				c-0.2,0.5-0.5,0.9-0.5,1.4c0,0,0,0,0,0c0,0.5,0.3,1,0.5,1.5c0.2,0.7,0.7,1.4,1.2,1.9c0,0,0.1,0.1,0.1,0.1
				c0.9,0.8,2.2,1.5,3.4,1.5c0,0,0,0,0,0c1.1,0,2.2-0.2,3.1-0.8c0.7-0.4,1.5-1.1,1.9-1.9c0.5-0.9,0.6-1.6,0.7-2.6
				C257.1,159,256.9,158.3,256.6,157.7z"/>
			<path class="st0" d="M411.6,223.5c0-0.4-0.1-0.9-0.3-1.2c-0.2-0.6-0.5-1.1-1-1.6c-0.5-0.4-1-0.8-1.5-1.1
				c-0.1-0.1-0.2-0.1-0.3-0.2c-0.8-0.6-1.8-1-2.9-1c-0.7,0-1.3,0.1-1.9,0.4c-0.6,0.2-1.1,0.5-1.6,1c-0.8,0.9-1.5,2.1-1.4,3.4
				c0,0.7,0.2,1.5,0.5,2.2c0.1,0.4,0.2,0.7,0.4,1c0.2,0.6,0.5,1.1,1,1.6c0.9,0.8,2.1,1.5,3.4,1.4c1,0,1.9-0.3,2.7-0.8
				c0.2-0.1,0.4-0.2,0.7-0.3c0.3-0.3,0.7-0.5,1-0.8c0.5-0.4,0.8-1,1-1.6c0.2-0.4,0.3-0.8,0.3-1.2
				C411.7,224.3,411.7,223.9,411.6,223.5z"/>
			<g class="st7">
				<path class="st8" d="M306.2,204.3c-5.7-15.4-19.9-26.4-36.8-23.8c-4.1,0.6-8.7,1.9-12.7,3.9c-3.6,1.7-6.9,4.1-9,6.9
					c-2.8,3.7-4.3,8.3-2.6,12.9c0.8,2.1,2.2,3.5,3.9,4.5c-3.1,3.3-4.2,9.1-4,13.3c0.5,7.6,5,14.9,11.1,19.5
					c10.7,8.1,26.2,8.1,37.6,1.5C307.4,234.9,311.5,218.7,306.2,204.3z"/>
			</g>
			<path class="st9" d="M269.6,263.1C269.6,263.1,269.6,263,269.6,263.1c0.2-5.3-2.4-10.1-8.7-10c-0.4,0-0.8,0-1.1,0.1
				c-1.4-0.2-2.9-0.1-4.4,0.3c-3.4,0.9-6.1,3.7-7.6,6.8c-1.8,3.9-0.4,7.1,2.4,9.9c0.2,0.2,0.4,0.4,0.7,0.6c2.3,3.6,6.6,5.9,11,4.3
				c0.6-0.2,1.2-0.5,1.7-0.8c0.4-0.1,0.8-0.3,1.1-0.5C268.8,271.9,270.4,267.5,269.6,263.1z"/>
			<path class="st5" d="M257.1,202.3c-5.1-5.9-13.7-9-21.3-6.8c-8,2.3-14.5,10.8-14.6,19.2c0,0.2,0,0.5,0,0.7
				c-1.3,8.6,5.6,14.5,13.8,15.7c7.4,1,15.7-1.3,21.2-6.6C262.7,218.4,262.9,209,257.1,202.3z"/>
			<path class="st10" d="M328.5,239.4c-2.3-7.9-8.7-12.3-16.6-13.7c-8.7-1.4-17.4,0.3-23.1,7.2c-0.5,0.5-0.9,0.9-1.3,1.4
				c-5.5,6.8-6.7,15.8-2.1,23.4c8.6,14.2,30.6,17.4,40,2.4C329.2,254.3,330.5,246.3,328.5,239.4z"/>
			<path class="st11" d="M352.1,236.3c-3.9-1-8.5-0.9-12.8-0.1c-4.6,0.1-9.3,2.1-12.8,5.4c-5.5,5.2-7.6,12.8-4.9,20
				c5.7,15.2,25.9,23.1,38.1,10.2C369.2,261.9,366.8,240.1,352.1,236.3z"/>
			<path class="st12" d="M291.3,252.6c-1.7-5.8-7.8-9.9-13.8-10c-2.6,0-5,0.8-7.1,2.1c-10.9,0.6-12,17.6-3.5,23.8
				C276.8,275.8,294.9,265.1,291.3,252.6z"/>
			<path class="st12" d="M332.8,201.9c-5.8-3.1-12.4-4.5-18.8-3.7c-7.6-1.8-17.1,3.2-20.8,9.8c-5,8.9-4.1,20.2,2.1,28.2
				c6.2,8.2,19,12.1,28.8,9.7c9.4-2.3,16.8-10.8,19.4-19.8C346.4,216,341.9,206.7,332.8,201.9z M329.7,227.5
				c0.6-1.1,1.2-2.2,1.6-3.3c-0.4,1.3-0.9,2.5-1.7,3.6C329.6,227.7,329.7,227.6,329.7,227.5z"/>
			<path class="st13" d="M298.2,178.7c-4.4-9.7-17.2-10.1-24.6-3.7c-1.3,1.2-2.5,2.5-3.3,4.1c-1.9,3-3,6.6-2.5,9.6
				c0.2,1.1,0.5,2.1,0.9,3c0.9,2.7,2.7,5.1,5.6,6.7c0.2,0.1,0.4,0.2,0.7,0.3c3.9,2.4,8.7,3.4,13,2.3
				C297.1,198.7,302,187.2,298.2,178.7z"/>
			<path class="st11" d="M326,152.1c-5.1-3.4-12.3-3-17,1c-0.9,0.8-1.7,1.7-2.3,2.6c-1.7,1.8-2.8,4.1-3.3,6.5
				c-1.5,7.4,3.1,14.7,10.8,15.2c6,0.4,12.4-3,15.5-8.1C333.3,163.5,331.7,155.8,326,152.1z"/>
			<path class="st10" d="M370,164.1c-1.7-8.8-11.1-11.1-18.3-7.1c-1,0.5-1.9,1.2-2.8,1.9c-4.2,2.5-7.4,7.6-7,12
				c0.6,8.5,9.4,13.6,17.3,11.5C367.2,180.4,371.6,172,370,164.1z"/>
			<path class="st14" d="M372.6,181.6c-2.8-4.7-8.3-6.8-13.6-6.6c-3.9,0.1-7.9,1.4-11.2,3.4c-3.1,1.6-5.8,4.4-7.5,7.6
				c-3.1,5.9-1.1,12.8,3.3,17.4c4.4,4.6,11.3,7.7,17.7,6.4c5.4-1.1,9.5-5.3,11.6-10.2C375.2,194,375.8,187,372.6,181.6z"/>
			<path class="st15" d="M266.7,214.1c-0.7-0.4-1.4-0.6-2.4-0.6c-8.1-0.2-16.9,6.9-17.4,15.3c-0.5,8.7,7.3,14.6,15.2,15.2
				c8.7,0.7,16.5-6,17.1-14.7C279.8,221.2,274,214.6,266.7,214.1z"/>
			<path class="st15" d="M373.5,217.2c-2-6.8-7-12.3-12.9-16.1c-5-3.1-10.9-4.9-16.8-5.1c-4.5-1.4-9.9-0.2-14.3,1.7
				c-7,3-12.8,8.9-15.4,16.1c-5.1,14.4,5.2,29.7,18.2,35.4c6.7,3,14.6,4.4,21.7,2c6.8-2.3,12.1-7.3,15.7-13.3
				C373.4,231.7,375.6,224.4,373.5,217.2z M337.5,222c0,0.6,0.1,1.2,0.2,1.7c-0.1,0.1-0.2,0.2-0.3,0.3
				C337.4,223.3,337.5,222.6,337.5,222z"/>
			<path class="st15" d="M395.3,149c-1.7-10.4-10.8-15.8-20.5-16.9c-0.3-0.1-0.6-0.2-1-0.3c-8.9-1.8-19.5,0.4-25.4,7.7
				c-7.7,9.6-3.2,22.4,4.3,30.6c8.2,8.9,21.7,11.9,32.4,5.8C394.9,170.5,397,159.2,395.3,149z"/>
		</g>
		<path class="st16" d="M408.9,188.9c-0.5-5.2-1.4-10.4-2.7-15.5c-2.9-15.3-8.4-29.6-15.8-43.4c-4.2-7.7-8.6-15.2-13.4-22.5
			c-4.5-7-9.3-14-15-20c-9.2-9.8-23.4-22.7-38-20.3c-0.8,0.1-1.6,0.3-2.4,0.5c-4.1,0.9-8.4,4-11.3,6c-6.4,4.6-8.8,11.2-10.4,18.6
			c-0.7,3.2-2.4,6.2-5,8.2c-0.3,0.2-0.5,0.3-0.8,0.4c-4,1.7-8.2,0.5-11.7-1.7c-3.8-2.4-6.7-6.1-9.6-9.6c-1.7-2.2-3.4-4.4-5.2-6.5
			c-2.4-2.7-5.2-4.3-8.3-5.3c-1.7-0.8-3.5-1.4-5.4-1.7c-2.3-0.3-4.5,0-6.5,0.7c-5.1,0.5-10.7,2.5-12.7,7.3c-2.3,5.7-0.9,12.6,0,18.5
			c1.5,9.7,2.5,19.5,2.9,29.3c0.3,7.7,0.1,15.4-0.8,23.1c-1.4,0.4-2.8,0.8-4.1,1.2c-4.7,1.5-9,4.1-12.8,7.3
			c-7.5,6.3-11,15.8-10.3,25.5c0.7,9.3,3.3,18.8,9.5,26c3.1,3.6,7.1,6.5,11.6,8.1c2.3,0.9,4.7,1.3,7.2,1.6c1.3,3.6,3.1,6.9,5.4,9.9
			c0,0,0,0,0.1,0.1c3.1,5.1,6.9,9.7,11.2,13.8c-7.8,13.7,3.5,32.5,15.6,39.7c8.3,4.9,17.4,7.7,26.4,2.8c6.7-3.7,10.3-11,16.8-14.9
			c1.6,1.2,3.5,1.9,5.3,2.8c2.9,1.6,5.8,3.3,8.9,4.5c6.2,2.5,13.6,4.2,20.3,3.7c10.5-0.9,18.3-8.5,22.7-17.6
			c4.7,1.2,9.9,1.6,14.5,0.6c4.6-1,8.3-4.5,10.6-8.4c2.9-4.8,3.6-10.2,4.1-15.7c0.7-7,2-13.9,3.5-20.8
			C406,213.2,410.1,201.4,408.9,188.9z"/>
		<g id="MOUTH">
			<path class="st0" d="M309.2,116.1c-0.4-0.2-0.7-0.1-1.1-0.1c0,0,0,0,0,0c-4.5-5-11.3-2.8-15.8-3.1c-5.4-0.3-10.6-0.5-16-1.3
				c-2.4-0.3-4.9-0.8-7.1-0.1c-4.7,0.8-5.8,6.1-5.3,11.1c0.7,6.4,3.7,11,10,13.1c6.9,2.3,15.8,2.3,22.9,1.3
				c7.4-1,16.1-3.5,16.7-12.1C313.7,121.3,312.7,117.9,309.2,116.1z"/>
			<path class="st17" d="M306.3,122.5c-1-1.3-2.8-2-4.9-2.4c-1.5-0.5-3-0.6-4.7-0.8c-3.9-0.4-7.9-0.8-11.8-1.2c-3-0.3-8-2.1-11.3-1
				c-0.9,0-1.8,0.4-2.5,1.4c-0.8,1.1-0.9,3-0.8,4.3c0.4,6.2,9.3,7.7,14.1,8.8c6.5,1.5,15,2.1,20.2-2.6c0.9-1,1.7-2.5,2.2-4.1
				C306.8,124,306.7,123.2,306.3,122.5z"/>
		</g>
		<path class="st18" d="M263.6,84c-3.6-6.2-11.4-6.9-17.7-4.9c-0.8,0.3-1.6,0.7-2.3,1.2c-1.7,0.9-3.2,2.1-4.3,3.8
			c-1.9,3-2.3,6.6-1.5,10c1.4,6.2,7.6,11.2,13.9,11.2C262.4,105.3,268.9,92.9,263.6,84z"/>
		<path class="st19" d="M260.7,86.7c-0.1-3.2-2.2-6-5.5-7c-3.8-1.1-8.1,0.3-10.9,2.9c-3.8,3.5-4,9.5-0.3,13.2
			c3.3,3.2,8.7,4.1,12.6,1.4c2.7-1.9,4.2-4.4,4.4-7.7C261.1,88.6,260.9,87.6,260.7,86.7z"/>
		<g>
			<defs>
				<path id="SVGID_1_" d="M260.7,86.7c-0.1-3.2-2.2-6-5.5-7c-3.8-1.1-8.1,0.3-10.9,2.9c-3.8,3.5-4,9.5-0.3,13.2
					c3.3,3.2,8.7,4.1,12.6,1.4c2.7-1.9,4.2-4.4,4.4-7.7C261.1,88.6,260.9,87.6,260.7,86.7z"/>
			</defs>
			<clipPath id="SVGID_2_">
				<use xlink:href="#SVGID_1_"  style="overflow:visible;"/>
			</clipPath>
			<path class="st20" d="M254.2,88.8c-0.3-0.7-1.1-2.5-2.8-2.2c-1.2,0.2-2.4,0.4-2.8,1.6c-0.4,1.3-0.1,3.1,1.2,3.8
				c1.3,0.7,2.8,0.3,3.9-0.7C254.4,90.7,254.6,89.7,254.2,88.8z"/>
		</g>
		<path class="st18" d="M352.1,85.2c-5.9-17.8-28.7-18.5-39.1-4.3c-6.3,8.5-3.1,19.8,4.2,26.5c3.8,3.5,7.8,5.1,11.7,5.3
			c6.6,1,13.4-0.6,18.3-5.7C352.7,101.4,354.6,92.6,352.1,85.2z"/>
		<g>
			<defs>
				<path id="SVGID_3_" d="M338.3,75.9c-8-5.5-18.3,0.3-21,9.2c-2.8,9,4,19.1,13.6,19.2c7.9,0.1,15.7-6,16.4-14.1
					C347.8,84.4,343.7,78.3,338.3,75.9z"/>
			</defs>
			<clipPath id="SVGID_4_">
				<use xlink:href="#SVGID_3_"  style="overflow:visible;"/>
			</clipPath>
			<g class="st21">
				<path class="st19" d="M338.3,75.9c-8-5.5-18.3,0.3-21,9.2c-2.8,9,4,19.1,13.6,19.2c7.9,0.1,15.7-6,16.4-14.1
					C347.8,84.4,343.7,78.3,338.3,75.9z"/>
				<path class="st17" d="M331,83.7c-1.1,0.1-1.8,1.2-2.2,2.1c-0.8,1.8-0.6,4,0.7,5.5c1.2,1.4,3.3,2,4.9,1c1.3-0.8,2.1-2.4,2.2-4
					C336.6,86.5,335.2,83.1,331,83.7z"/>
			</g>
		</g>
	</g>
</g>
</svg>
